nColumns=28
nRows=54
DataType=double
version=3
OpenSimVersion=4.1
endheader
time	ground_force_1_vx	ground_force_1_vy	ground_force_1_vz	ground_force_1_px	ground_force_1_py	ground_force_1_pz	ground_force_1_mx	ground_force_1_my	ground_force_1_mz	ground_force_2_vx	ground_force_2_vy	ground_force_2_vz	ground_force_2_px	ground_force_2_py	ground_force_2_pz	ground_force_2_mx	ground_force_2_my	ground_force_2_mz	ground_force_3_vx	ground_force_3_vy	ground_force_3_vz	ground_force_3_px	ground_force_3_py	ground_force_3_pz	ground_force_3_mx	ground_force_3_my	ground_force_3_mz
10.08	-38.1899	207.573	-19.5545	-0.302721	0.006	-0.469756	0	2.18938	0	-17.2543	114.223	5.04866	-0.179096	0.006	-0.728991	0	-0.773629	0	0	0	0	0	0	0	0	0	0
10.09	-29.2171	173.512	-19.7881	-0.300846	0.006	-0.470396	0	2.11579	0	-12.6529	100.724	4.51583	-0.176982	0.006	-0.727229	0	-0.634616	0	0	0	0	0	0	0	0	0	0
10.1	-22.8785	144.078	-19.2859	-0.297181	0.006	-0.471919	0	1.99511	0	-8.821	87.2095	4.09104	-0.173106	0.006	-0.724465	0	-0.516732	0	0	0	0	0	0	0	0	0	0
10.11	-18.6172	120.006	-17.9683	-0.29257	0.006	-0.474521	0	1.88325	0	-5.17221	74.3294	3.75683	-0.170583	0.006	-0.719897	0	-0.386771	0	0	0	0	0	0	0	0	0	0
10.12	-13.5213	101	-16.0941	-0.288516	0.006	-0.477879	0	1.75082	0	-1.80374	62.355	3.68505	-0.169741	0.006	-0.712099	0	-0.183631	0	0	0	0	0	0	0	0	0	0
10.13	-7.6518	86.7802	-14.1474	-0.284737	0.006	-0.482071	0	1.58384	0	0.84862	51.8263	3.75984	-0.168326	0.006	-0.701596	0	0.0007644	0	0	0	0	0	0	0	0	0	0
10.14	-3.7836	76.2794	-12.1899	-0.27988	0.006	-0.486954	0	1.48735	0	2.55567	43.6578	4.06021	-0.16668	0.006	-0.690689	0	0.128615	0	0	0	0	0	0	0	0	0	0
10.15	-2.51611	67.786	-10.3166	-0.273315	0.006	-0.492477	0	1.44593	0	3.02194	37.8015	4.78481	-0.164096	0.006	-0.680808	0	0.183671	0	0	0	0	0	0	0	0	0	0
10.16	-2.8564	59.5655	-8.85676	-0.265953	0.006	-0.499047	0	1.34761	0	2.3014	33.5039	5.77299	-0.161545	0.006	-0.671248	0	0.125095	0	0	0	0	0	0	0	0	0	0
10.17	-3.56189	51.2486	-8.00175	-0.260863	0.006	-0.508127	0	1.23589	0	0.980267	30.3601	6.6591	-0.158459	0.006	-0.661214	0	-0.0263975	0	0	0	0	0	0	0	0	0	0
10.18	-3.18937	44.1159	-7.32888	-0.258771	0.006	-0.518331	0	1.12348	0	-0.524522	28.0391	7.27833	-0.154975	0.006	-0.650859	0	-0.234373	0	0	0	0	0	0	0	0	0	0
10.19	-1.75818	38.7765	-6.4787	-0.257617	0.006	-0.527138	0	0.949456	0	-1.96123	26.1443	7.58477	-0.152829	0.006	-0.641469	0	-0.439088	0	0	0	0	0	0	0	0	0	0
10.2	-0.528751	34.5945	-5.41093	-0.257907	0.006	-0.53694	0	0.808061	0	-3.10034	24.6584	7.84122	-0.151219	0.006	-0.632128	0	-0.638716	0	0	0	0	0	0	0	0	0	0
10.21	0.144915	31.0937	-4.39145	-0.259183	0.006	-0.547351	0	0.726058	0	-3.84438	23.7503	7.94799	-0.149284	0.006	-0.625735	0	-0.771058	0	0	0	0	0	0	0	0	0	0
10.22	0.104371	28.1289	-3.73316	-0.260431	0.006	-0.557264	0	0.732128	0	-4.22264	23.167	7.58237	-0.147781	0.006	-0.62133	0	-0.828318	0	0	0	0	0	0	0	0	0	0
10.23	-0.49463	25.2068	-3.32066	-0.262005	0.006	-0.570324	0	0.80562	0	-4.28013	22.5016	7.06092	-0.147625	0.006	-0.614875	0	-0.852487	0	0	0	0	0	0	0	0	0	0
10.24	-1.22404	22.1486	-2.82867	-0.264762	0.006	-0.586941	0	0.881886	0	-4.39229	21.6159	6.63044	-0.148549	0.006	-0.606267	0	-0.897698	0	0	0	0	0	0	0	0	0	0
10.25	-0.244009	3.02914	-0.358554	-0.040094	0.0009	-0.0898947	0	0.139676	0	-4.59505	20.9113	6.27132	-0.147315	0.006	-0.600106	0	-0.943622	0	0	0	0	0	0	0	0	0	0
10.26	0	0	0	0	0	0	0	0	0	-4.80056	20.4097	5.97204	-0.146752	0.006	-0.595805	0	-0.980746	0	0	0	0	0	0	0	0	0	0
10.27	0	0	0	0	0	0	0	0	0	-1.72088	7.03819	2.04176	-0.0514152	0.0021	-0.208055	0	-0.355457	0	0	0	0	0	0	0	0	0	0
10.28	0	0	0	0	0	0	0	0	0	0	0	0	0	0	0	0	0	0	0	0	0	0	0	0	0	0	0
10.29	0	0	0	0	0	0	0	0	0	0	0	0	0	0	0	0	0	0	0	0	0	0	0	0	0	0	0
10.3	0	0	0	0	0	0	0	0	0	0	0	0	0	0	0	0	0	0	0	0	0	0	0	0	0	0	0
10.31	0	0	0	0	0	0	0	0	0	0	0	0	0	0	0	0	0	0	0	0	0	0	0	0	0	0	0
10.32	0	0	0	0	0	0	0	0	0	0	0	0	0	0	0	0	0	0	0	0	0	0	0	0	0	0	0
10.33	0	0	0	0	0	0	0	0	0	0	0	0	0	0	0	0	0	0	0	0	0	0	0	0	0	0	0
10.34	0	0	0	0	0	0	0	0	0	0	0	0	0	0	0	0	0	0	0	0	0	0	0	0	0	0	0
10.35	0	0	0	0	0	0	0	0	0	0	0	0	0	0	0	0	0	0	0	0	0	0	0	0	0	0	0
10.36	0	0	0	0	0	0	0	0	0	0	0	0	0	0	0	0	0	0	0	0	0	0	0	0	0	0	0
10.37	0	0	0	0	0	0	0	0	0	0	0	0	0	0	0	0	0	0	0	0	0	0	0	0	0	0	0
10.38	0	0	0	0	0	0	0	0	0	0	0	0	0	0	0	0	0	0	0	0	0	0	0	0	0	0	0
10.39	0	0	0	0	0	0	0	0	0	0	0	0	0	0	0	0	0	0	0	0	0	0	0	0	0	0	0
10.4	0	0	0	0	0	0	0	0	0	0	0	0	0	0	0	0	0	0	0	0	0	0	0	0	0	0	0
10.41	0	0	0	0	0	0	0	0	0	0	0	0	0	0	0	0	0	0	0	0	0	0	0	0	0	0	0
10.42	0	0	0	0	0	0	0	0	0	0	0	0	0	0	0	0	0	0	0	0	0	0	0	0	0	0	0
10.43	0	0	0	0	0	0	0	0	0	0	0	0	0	0	0	0	0	0	0	0	0	0	0	0	0	0	0
10.44	0	0	0	0	0	0	0	0	0	0	0	0	0	0	0	0	0	0	0	0	0	0	0	0	0	0	0
10.45	0	0	0	0	0	0	0	0	0	0	0	0	0	0	0	0	0	0	0	0	0	0	0	0	0	0	0
10.46	0	0	0	0	0	0	0	0	0	0	0	0	0	0	0	0	0	0	0	0	0	0	0	0	0	0	0
10.47	0	0	0	0	0	0	0	0	0	0	0	0	0	0	0	0	0	0	0	0	0	0	0	0	0	0	0
10.48	0	0	0	0	0	0	0	0	0	0	0	0	0	0	0	0	0	0	0	0	0	0	0	0	0	0	0
10.49	0	0	0	0	0	0	0	0	0	0	0	0	0	0	0	0	0	0	0	0	0	0	0	0	0	0	0
10.5	0	0	0	0	0	0	0	0	0	0	0	0	0	0	0	0	0	0	0	0	0	0	0	0	0	0	0
10.51	0	0	0	0	0	0	0	0	0	0	0	0	0	0	0	0	0	0	0	0	0	0	0	0	0	0	0
10.52	0	0	0	0	0	0	0	0	0	0	0	0	0	0	0	0	0	0	0	0	0	0	0	0	0	0	0
10.53	0	0	0	0	0	0	0	0	0	0	0	0	0	0	0	0	0	0	0	0	0	0	0	0	0	0	0
10.54	0	0	0	0	0	0	0	0	0	0	0	0	0	0	0	0	0	0	0	0	0	0	0	0	0	0	0
10.55	0	0	0	0	0	0	0	0	0	0	0	0	0	0	0	0	0	0	0	0	0	0	0	0	0	0	0
10.56	0	0	0	0	0	0	0	0	0	0	0	0	0	0	0	0	0	0	0	0	0	0	0	0	0	0	0
10.57	0	0	0	0	0	0	0	0	0	0	0	0	0	0	0	0	0	0	0	0	0	0	0	0	0	0	0
10.58	0	0	0	0	0	0	0	0	0	0	0	0	0	0	0	0	0	0	0	0	0	0	0	0	0	0	0
10.59	0	0	0	0	0	0	0	0	0	0	0	0	0	0	0	0	0	0	0	0	0	0	0	0	0	0	0
10.6	0	0	0	0	0	0	0	0	0	0	0	0	0	0	0	0	0	0	0	0	0	0	0	0	0	0	0
10.61	0	0	0	0	0	0	0	0	0	0	0	0	0	0	0	0	0	0	0	0	0	0	0	0	0	0	0
